# AST/ASF file generated using VICON BodyLanguage
# -----------------------------------------------
:version 1.10
:name VICON
:units
  mass 1.0
  length 0.45
  angle deg
:documentation
   .ast/.asf automatically generated from VICON data using
   VICON BodyBuilder and BodyLanguage model FoxedUp or BRILLIANT.MOD
:root
   order TX TY TZ RX RY RZ
   axis XYZ
   position 0 0 0  
   orientation 0 0 0 
:bonedata
  begin
     id 1 
     name lhipjoint
     direction 0.528046 -0.759594 0.379717 
     length 2.39752 
     axis 0 0 0  XYZ
  end
  begin
     id 2 
     name lfemur
     direction 0.34202 -0.939693 0  
     length 7.31175  
     axis 0 0 20  XYZ
    dof rx ry rz
    limits (-160.0 20.0)
           (-70.0 70.0)
           (-60.0 70.0)
  end
  begin
     id 3 
     name ltibia
     direction 0.34202 -0.939693 0   
     length 7.52482   
     axis 0 0 20   XYZ
    dof rx
    limits (-10.0 170.0)
  end
  begin
     id 4 
     name lfoot
     direction 0.0675379 -0.185559 0.980309   
     length 2.00961   
     axis -90 7.62852e-016 20   XYZ
    dof rx rz
    limits (-45.0 90.0)
           (-70.0 20.0)
  end
  begin
     id 5 
     name ltoes
     direction 1.5352e-011 -4.22286e-011 1   
     length 1.01383   
     axis -90 7.62852e-016 20   XYZ
    dof rx
    limits (-90.0 20.0)
  end
  begin
     id 6 
     name rhipjoint
     direction -0.510274 -0.769251 0.384544   
     length 2.36742  
     axis 0 0 0  XYZ 
  end
  begin
     id 7 
     name rfemur
     direction -0.34202 -0.939693 0   
     length 7.45325   
     axis 0 0 -20   XYZ
    dof rx ry rz
    limits (-160.0 20.0)
           (-70.0 70.0)
           (-70.0 60.0)
  end
  begin
     id 8 
     name rtibia
     direction -0.34202 -0.939693 0   
     length 7.49587   
     axis 0 0 -20   XYZ
    dof rx
    limits (-10.0 170.0)
 end
 begin
     id 9 
     name rfoot
     direction -0.106475 -0.292536 0.950308   
     length 2.20898  
     axis -90 -7.62852e-016 -20   XYZ
    dof rx rz
    limits (-45.0 90.0)
           (-20.0 70.0)
  end
  begin
     id 10 
     name rtoes
     direction -1.53597e-011 -4.22023e-011 1   
     length 1.10065   
     axis -90 -7.62852e-016 -20   XYZ
    dof rx
    limits (-90.0 20.0)
  end
  begin
     id 11 
     name lowerback
     direction 0.0260024 0.998026 -0.0571652   
     length 2.11214   
     axis 0 0 0   XYZ
    dof rx ry rz
    limits (-20.0 45.0)
           (-30.0 30.0)
           (-30.0 30.0)
  end
  begin
     id 12 
     name upperback
     direction 0.0216202 0.999542 -0.0211766   
     length 2.11689   
     axis 0 0 0   XYZ
    dof rx ry rz
    limits (-20.0 45.0)
           (-30.0 30.0)
           (-30.0 30.0)
  end
  begin
     id 13 
     name thorax
     direction 0.00883312 0.999944 0.00589057   
     length 2.11821   
     axis 0 0 0   XYZ
    dof rx ry rz
    limits (-20.0 45.0)
           (-30.0 30.0)
           (-30.0 30.0)
  end
  begin
     id 14 
     name lowerneck
     direction -0.059386 0.994433 0.0870401   
     length 1.81176   
     axis 0 0 0   XYZ
    dof rx ry rz
    limits (-20.0 45.0)
           (-30.0 30.0)
           (-30.0 30.0)
  end
  begin
     id 15 
     name upperneck
     direction 0.0506457 0.97328 -0.223967   
     length 1.82382   
     axis 0 0 0   XYZ
    dof rx ry rz
    limits (-20.0 45.0)
           (-30.0 30.0)
           (-30.0 30.0)
  end
  begin
     id 16
     name head
     direction 0.0205902 0.996147 -0.0852487  
     length 1.84805  
     axis 0 0 0   XYZ
    dof rx ry rz
    limits (-20.0 45.0)
           (-30.0 30.0)
           (-30.0 30.0)
  end
  begin
     id 17 
     name lclavicle
     direction 0.949493 0.303881 -0.0782325  
     length 3.60584  
     axis 0 0 0   XYZ
    dof ry rz
    limits (-20.0 10.0)
           (0.0 20.0)
  end
  begin
     id 18 
     name lhumerus
     direction 1 -4.48965e-011 1.48782e-027   
     length 4.95681   
     axis 180 -30 -90   XYZ
    dof rx ry rz
    limits (-60.0 90.0)
           (-90.0 90.0)
           (-90.0 90.0)
  end
  begin
     id 19
     name lradius
     direction 1 -4.48952e-011 2.06528e-027   
     length 3.40915   
     axis 180 -30 -90   XYZ
    dof rx
    limits (-10.0 170.0)
  end
  begin
     id 20
     name lwrist
     direction 1 -4.48964e-011 1.28021e-027   
     length 1.70457   
     axis -1.61767e-015 90 90   XYZ
    dof ry
    limits (-180.0 0.0)
 end
  begin
     id 21 
     name lhand
     direction 1 -4.49094e-011 2.54887e-027   
     length 0.616403   
     axis -1.63363e-015 90 90   XYZ
    dof rx rz
    limits (-90.0 90.0)
           (-45.0 45.0)
  end
  begin
     id 22 
     name lfingers
     direction 1 -4.49002e-011 5.11407e-027   
     length 0.49696   
     axis -3.26723e-015 90 90   XYZ
    dof rx
    limits (0.0 90.0)
  end
  begin
     id 23
     name lthumb
     direction 0.707107 -6.34998e-011 0.707107   
     length 0.713539   
     axis -90 45 -2.25915e-014   XYZ
    dof rx rz
    limits (-45.0 45.0)
           (-45.0 45.0)
  end
  begin
     id 24 
     name rclavicle
     direction -0.937751 0.334612 -0.0930482   
     length 3.46287  
     axis 0 0 0   XYZ 
    dof ry rz
    limits (-10.0 20.0)
           (-20.0 0.0)
  end
  begin
     id 25 
     name rhumerus
     direction -1 -4.48962e-011 3.59972e-027  
     length 5.352   
     axis 180 30 90   XYZ
    dof rx ry rz
    limits (-90.0 60.0)
           (-90.0 90.0)
           (-90.0 90.0)
  end
  begin
     id 26 
     name rradius
     direction -1 -4.48987e-011 -3.76925e-027   
     length 3.43721   
     axis 180 30 90   XYZ
    dof rx
    limits (-10.0 170.0)
  end
  begin
     id 27 
     name rwrist
     direction -1 -4.48943e-011 1.28112e-027   
     length 1.7186   
     axis -1.61767e-015 -90 -90   XYZ
    dof ry
    limits (-180.0 0.0)
  end
  begin
     id 28
     name rhand
     direction -1 -4.49027e-011 2.55483e-027   
     length 0.72009   
     axis -1.63363e-015 -90 -90   XYZ
    dof rx rz
    limits (-90.0 90.0)
           (-45.0 45.0)
  end
  begin
     id 29
     name rfingers
     direction -1 -4.48827e-011 5.14506e-027   
     length 0.580555   
     axis -3.26723e-015 -90 -90   XYZ
    dof rx
    limits (0.0 90.0)
  end
  begin
     id 30
     name rthumb
     direction -0.707107 -6.34936e-011 0.707107   
     length 0.833564   
     axis -90 -45 2.25915e-014   XYZ
    dof rx rz
    limits (-45.0 45.0)
           (-45.0 45.0)
  end
:hierarchy
  begin
    root lhipjoint rhipjoint lowerback
    lhipjoint lfemur
    lfemur ltibia
    ltibia lfoot
    lfoot ltoes
    rhipjoint rfemur
    rfemur rtibia
    rtibia rfoot
    rfoot rtoes
    lowerback upperback
    upperback thorax
    thorax lowerneck lclavicle rclavicle
    lowerneck upperneck
    upperneck head
    lclavicle lhumerus
    lhumerus lradius
    lradius lwrist
    lwrist lhand lthumb
    lhand lfingers
    rclavicle rhumerus
    rhumerus rradius
    rradius rwrist
    rwrist rhand rthumb
    rhand rfingers
  end

#!OML:ASF H:\Terrain\Patient Classification 1\Terrain2\Thursday\justin.ASF
:FULLY-SPECIFIED
:DEGREES
1
root 31.4465 17.9858 8.2251 4.79553 -16.1021 -3.68627
lowerback -0.237092 -1.4227 -1.08352
upperback -2.60699 -1.88375 1.66778
thorax -2.4511 -0.900868 2.35468
lowerneck -6.12137 -11.1757 -16.8217
upperneck 23.5242 -16.4804 12.1947
head 11.0469 -8.06367 5.01084
rclavicle -2.12731e-014 -1.15295e-014
rhumerus -36.9222 -1.18395 -88.2383
rradius 24.1829
rwrist -4.82082
rhand -19.7972 3.21012
rfingers 7.12502
rthumb 6.53563 -26.669
lclavicle -2.12731e-014 -1.15295e-014
lhumerus -40.5102 7.79263 87.8078
lradius 20.1321
lwrist -6.33441
lhand -25.2907 40.1861
lfingers 7.12502
lthumb 1.23078 70.1623
rfemur -9.46715 1.39194 24.0654
rtibia 29.1911
rfoot -19.6503 1.6004
rtoes 3.79119
lfemur -7.08207 0.689265 -16.6286
ltibia 26.7691
lfoot -18.6757 3.57421
ltoes -1.14057
2
root 31.4583 17.9908 8.228 4.68232 -16.0586 -3.59707
lowerback -0.165001 -1.41178 -1.00448
upperback -2.57417 -1.86789 1.69832
thorax -2.46004 -0.894378 2.34297
lowerneck -7.01119 -10.7759 -15.986
upperneck 24.4594 -15.6772 11.0261
head 11.2454 -7.69304 4.55457
rclavicle 5.70885e-014 1.2921e-015
rhumerus -36.6818 -1.34255 -88.0117
rradius 24.4081
rwrist -5.4102
rhand -19.6574 2.83673
rfingers 7.12502
rthumb 6.67059 -27.0382
lclavicle 5.70885e-014 1.2921e-015
lhumerus -40.3536 7.80381 87.8484
lradius 20.3549
lwrist -5.63407
lhand -24.8274 39.2204
lfingers 7.12502
lthumb 1.67831 69.1935
rfemur -9.37679 1.6841 23.8927
rtibia 29.2237
rfoot -19.7018 1.72825
rtoes 6.28289
lfemur -6.95434 0.663344 -16.773
ltibia 26.7097
lfoot -18.5176 3.6095
ltoes -1.23506
3
root 31.469 17.984 8.22608 4.62378 -15.9547 -3.56379
lowerback -0.115329 -1.38782 -0.890567
upperback -2.55481 -1.83419 1.71585
thorax -2.47249 -0.87974 2.29758
lowerneck -7.73093 -10.4059 -15.487
upperneck 25.2994 -14.9935 10.2689
head 11.4832 -7.38183 4.28736
rclavicle -6.10952e-015 -6.65929e-015
rhumerus -36.4445 -1.71515 -87.7478
rradius 24.5436
rwrist -5.61755
rhand -19.2775 2.62565
rfingers 7.12502
rthumb 7.03728 -27.2374
lclavicle -6.10952e-015 -6.65929e-015
lhumerus -40.2882 7.71984 87.8783
lradius 20.7693
lwrist -5.20525
lhand -24.4329 38.6035
lfingers 7.12502
lthumb 2.05931 68.5733
rfemur -9.30123 1.27714 23.8644
rtibia 29.0997
rfoot -19.6142 1.44836
rtoes 3.52793
lfemur -7.07671 0.628075 -16.8237
ltibia 26.9594
lfoot -18.5163 3.45998
ltoes -0.187873
4
root 31.4783 17.977 8.22501 4.61144 -15.8385 -3.68443
lowerback -0.145325 -1.3752 -0.639235
upperback -2.50476 -1.81333 1.77401
thorax -2.41068 -0.874894 2.21424
lowerneck -8.37542 -10.0332 -15.3244
upperneck 26.2218 -14.3684 9.87147
head 11.8227 -7.10115 4.20113
rclavicle -4.39656e-015 -7.85199e-015
rhumerus -36.1354 -2.19768 -87.4172
rradius 24.454
rwrist -5.54176
rhand -18.9088 3.75065
rfingers 7.12502
rthumb 7.39319 -26.1002
lclavicle -4.39656e-015 -7.85199e-015
lhumerus -40.1257 7.2357 88.1277
lradius 21.2191
lwrist -4.63061
lhand -25.1708 38.0909
lfingers 7.12502
lthumb 1.3466 68.0664
rfemur -9.20004 0.979032 24.0128
rtibia 28.9715
rfoot -19.5615 1.09188
rtoes 0.631348
lfemur -7.1689 0.678447 -16.6937
ltibia 27.1555
lfoot -18.6512 3.20327
ltoes 0.0922326
5
root 31.4892 17.9758 8.2253 4.6133 -15.817 -3.9681
lowerback -0.138567 -1.34571 -0.245149
upperback -2.46495 -1.76689 1.91266
thorax -2.38285 -0.858913 2.1345
lowerneck -8.91212 -9.55647 -15.094
upperneck 27.1811 -13.6038 9.42601
head 12.1343 -6.76622 4.11739
rclavicle 5.12313e-014 -1.71452e-015
rhumerus -35.786 -2.61826 -87.0281
rradius 24.3286
rwrist -5.43156
rhand -18.4142 4.85587
rfingers 7.12502
rthumb 7.87059 -24.9776
lclavicle 5.12313e-014 -1.71452e-015
lhumerus -39.9483 6.80447 88.4293
lradius 21.7065
lwrist -3.81996
lhand -25.5984 37.8211
lfingers 7.12502
lthumb 0.933593 67.7988
rfemur -9.04463 1.05951 24.2881
rtibia 28.8138
rfoot -19.4772 0.96701
rtoes -0.0924477
lfemur -7.21427 0.589543 -16.4316
ltibia 27.3999
lfoot -18.8817 3.26201
ltoes -0.374112
6
root 31.4995 17.9761 8.22289 4.64888 -15.8131 -4.30891
lowerback -0.0746633 -1.3041 0.156046
upperback -2.44471 -1.70253 2.10079
thorax -2.40649 -0.833115 2.10335
lowerneck -9.21411 -9.0278 -14.8269
upperneck 27.858 -12.7595 8.95739
head 12.2791 -6.40564 4.03878
rclavicle -2.4482e-014 1.85957e-014
rhumerus -35.4349 -2.96216 -86.6912
rradius 24.3761
rwrist -5.4584
rhand -18.2352 4.62036
rfingers 7.12502
rthumb 8.04337 -25.2066
lclavicle -2.4482e-014 1.85957e-014
lhumerus -39.8706 6.52802 88.711
lradius 22.238
lwrist -2.89747
lhand -25.2304 37.3937
lfingers 7.12502
lthumb 1.289 67.3696
rfemur -8.93803 1.35313 24.6546
rtibia 28.6836
rfoot -19.3574 0.693455
rtoes -0.128143
lfemur -7.25657 0.725487 -16.0973
ltibia 27.5853
lfoot -18.9656 3.38947
ltoes -1.76856
7
root 31.5108 17.9764 8.22597 4.64439 -15.7146 -4.32385
lowerback -0.142689 -1.3007 0.304691
upperback -2.36178 -1.69719 2.1747
thorax -2.28516 -0.833611 2.09248
lowerneck -9.79395 -8.54771 -14.4782
upperneck 28.6009 -11.9458 8.43562
head 12.5125 -6.04979 3.90908
rclavicle 1.4634e-014 -1.13804e-014
rhumerus -35.0632 -3.13413 -86.5214
rradius 24.5927
rwrist -5.7525
rhand -18.196 4.30642
rfingers 7.12502
rthumb 8.08116 -25.5191
lclavicle 1.4634e-014 -1.13804e-014
lhumerus -39.6886 6.31871 88.8765
lradius 22.869
lwrist -2.36065
lhand -23.8045 37.5478
lfingers 7.12502
lthumb 2.66619 67.5109
rfemur -8.87706 1.30955 24.6441
rtibia 28.5891
rfoot -19.3268 0.661652
rtoes 0.127083
lfemur -7.32128 1.11444 -16.0827
ltibia 27.7105
lfoot -19.0526 3.1003
ltoes -2.57638
8
root 31.5226 17.9747 8.23229 4.64168 -15.6402 -4.28116
lowerback -0.287733 -1.26599 0.414083
upperback -2.24132 -1.65345 2.21952
thorax -2.08294 -0.814667 2.07035
lowerneck -10.5372 -8.1107 -14.0414
upperneck 29.4432 -11.1738 7.84443
head 12.829 -5.71089 3.7256
rclavicle -3.71852e-014 8.19987e-015
rhumerus -34.7072 -3.22635 -86.3612
rradius 24.7495
rwrist -6.11483
rhand -18.4216 5.5699
rfingers 7.12502
rthumb 7.86339 -24.2639
lclavicle -3.71852e-014 8.19987e-015
lhumerus -39.3934 6.20292 88.948
lradius 23.4366
lwrist -2.1692
lhand -22.9272 37.2452
lfingers 7.12502
lthumb 3.51339 67.196
rfemur -8.84245 1.15123 24.5429
rtibia 28.5336
rfoot -19.368 0.712712
rtoes 0.0742627
lfemur -7.39161 1.26186 -16.1501
ltibia 27.8095
lfoot -19.1518 2.75957
ltoes -2.20825
9
root 31.5335 17.9696 8.23176 4.58921 -15.6177 -4.46948
lowerback -0.262636 -1.16771 0.714176
upperback -2.13157 -1.51975 2.31414
thorax -1.99387 -0.752928 1.99621
lowerneck -11.0418 -7.65006 -13.5892
upperneck 30.166 -10.4179 7.33481
head 13.0665 -5.37887 3.57526
rclavicle 3.35744e-014 1.68967e-015
rhumerus -34.3781 -3.70515 -85.9964
rradius 24.7479
rwrist -5.99499
rhand -19.0166 7.96748
rfingers 7.12502
rthumb 7.28912 -21.887
lclavicle 3.35744e-014 1.68967e-015
lhumerus -39.146 5.97346 89.037
lradius 23.8307
lwrist -1.83681
lhand -23.2962 35.8261
lfingers 7.12502
lthumb 3.15703 65.7825
rfemur -8.71368 1.46801 24.7338
rtibia 28.5097
rfoot -19.3825 0.455724
rtoes 0.592353
lfemur -7.35572 1.14529 -15.9855
ltibia 27.8826
lfoot -19.0813 2.80183
ltoes -2.30589
